<svg id="Layer_1" data-name="Layer 1" xmlns="http://www.w3.org/2000/svg" viewBox="0 0 290.63 58.79"><defs><style>.cls-1{fill:#fff;}</style></defs><title>market_leader_logo</title><path class="cls-1" d="M248,6.55h0l0.41-2h0a0.52,0.52,0,0,0-.48-0.44c-9.54-3.53-27.72,8.08-40.06,4.41,0,0,0,0,0,0,10.44,5.86,23.34-.37,34.36,2.64l-0.43,2.11a0.42,0.42,0,0,0,.15.45c11.55,7.21,21-7.8,32.73,2.21l2.66-13.3C265.74-5.38,257.15,7.62,248,6.55Z" transform="translate(-26.64)"/><path class="cls-1" d="M37,34.06a10.46,10.46,0,0,1,3.51-2.7,10.23,10.23,0,0,1,4.39-.93,6,6,0,0,1,3.68,1.14,5.53,5.53,0,0,1,2,3.4,11.42,11.42,0,0,1,3.64-3.35,9.21,9.21,0,0,1,4.62-1.19A5.67,5.67,0,0,1,64,33.22q1.71,2.78.63,8.26l-3.19,16H55.56l3.21-16q0.71-3.63,0-4.88a3.05,3.05,0,0,0-2.87-1.25,4.83,4.83,0,0,0-3,1.07,8.43,8.43,0,0,0-2.34,2.81c0,0.29-.09.51-0.11,0.65s0,0.28-.06.43L47,57.47H41.11l3.21-16Q45,38,44.26,36.64a3,3,0,0,0-2.88-1.33,5.46,5.46,0,0,0-2.76.72,7.32,7.32,0,0,0-2.22,2L32.5,57.47H26.64l5.3-26.55h5.35Z" transform="translate(-26.64)"/><path class="cls-1" d="M81.22,57.47q-0.1-.83-0.11-1.64a15.62,15.62,0,0,1,.06-1.62,13.42,13.42,0,0,1-3.5,2.71A8.49,8.49,0,0,1,73.59,58a6.4,6.4,0,0,1-5.29-2.2,6.68,6.68,0,0,1-1-5.8,9,9,0,0,1,4-6.12,15.39,15.39,0,0,1,8.39-2H83.5L84,39.51a4.08,4.08,0,0,0-.41-3.32,3.42,3.42,0,0,0-2.91-1.12,5.08,5.08,0,0,0-3.09,1,4,4,0,0,0-1.64,2.51H70.3l0-.15a8.59,8.59,0,0,1,3.8-5.67,13.19,13.19,0,0,1,7.87-2.33,8.58,8.58,0,0,1,6.43,2.4q2.36,2.4,1.5,6.72L87.5,51.36A22.53,22.53,0,0,0,87,54.57a15,15,0,0,0,.11,2.89H81.22ZM75.85,53.2a7.14,7.14,0,0,0,3.31-.88,8.09,8.09,0,0,0,2.67-2.13l0.93-4.61h-4a5.68,5.68,0,0,0-3.7,1.3,5.18,5.18,0,0,0-1.94,3A2.41,2.41,0,0,0,75.85,53.2Z" transform="translate(-26.64)"/><path class="cls-1" d="M108.19,36.37l-2.7-.1a4.84,4.84,0,0,0-2.62.74,6.57,6.57,0,0,0-2,2.06l-3.68,18.4H91.28l5.3-26.55H102l-0.34,3.51a10.32,10.32,0,0,1,2.93-3,6.39,6.39,0,0,1,3.5-1,7.43,7.43,0,0,1,1.07.09,4.51,4.51,0,0,1,.9.21Z" transform="translate(-26.64)"/><path class="cls-1" d="M118.32,45.86h-2.4l-2.31,11.6h-5.84l7.65-38.27h5.84l-4.39,21.89h2.28L127,30.92h6.72l0,0.12L123.55,43l6.31,14.5h-6.79Z" transform="translate(-26.64)"/><path class="cls-1" d="M142,58a8.88,8.88,0,0,1-7.74-3.73q-2.64-3.73-1.7-9.45l0.15-1a17.24,17.24,0,0,1,4.63-9.72,11.39,11.39,0,0,1,8.38-3.68q4.88,0,7.1,3.28t1.36,8.7l-0.56,3.51H138.27a8.45,8.45,0,0,0,.86,5.32,4.32,4.32,0,0,0,4,2,11.72,11.72,0,0,0,3.83-.6,15.19,15.19,0,0,0,3.39-1.67l1.23,3.91a13.73,13.73,0,0,1-4,2.24A15.81,15.81,0,0,1,142,58Zm2.94-22.77A4.54,4.54,0,0,0,141.52,37a10.9,10.9,0,0,0-2.29,4.45l0,0.12h9.23l0.1-.61a6.54,6.54,0,0,0-.47-4.17A3.32,3.32,0,0,0,144.94,35.22Z" transform="translate(-26.64)"/><path class="cls-1" d="M168.89,24.47l-1.3,6.45H172l-0.88,4.42h-4.39L163.79,50a3.09,3.09,0,0,0,.13,2.4,1.9,1.9,0,0,0,1.58.64,10.59,10.59,0,0,0,1.28-.09,9.22,9.22,0,0,0,1.23-.23l-0.27,4.37a9.76,9.76,0,0,1-2.17.65A13.86,13.86,0,0,1,163,58a5.2,5.2,0,0,1-4.42-2q-1.5-2-.66-6l2.92-14.67h-3.71L158,30.92h3.7l1.3-6.45h5.86Z" transform="translate(-26.64)"/><path class="cls-1" d="M207,58a8.88,8.88,0,0,1-7.74-3.73q-2.64-3.73-1.7-9.45l0.15-1a17.24,17.24,0,0,1,4.63-9.72,11.39,11.39,0,0,1,8.38-3.68q4.88,0,7.1,3.28t1.36,8.7l-0.56,3.51H203.31a8.45,8.45,0,0,0,.86,5.32,4.32,4.32,0,0,0,4,2,11.72,11.72,0,0,0,3.83-.6,15.19,15.19,0,0,0,3.39-1.67l1.23,3.91a13.73,13.73,0,0,1-4,2.24A15.81,15.81,0,0,1,207,58ZM210,35.22A4.54,4.54,0,0,0,206.56,37a10.9,10.9,0,0,0-2.29,4.45l0,0.12h9.23l0.1-.61a6.54,6.54,0,0,0-.47-4.17A3.32,3.32,0,0,0,210,35.22Z" transform="translate(-26.64)"/><path class="cls-1" d="M235.29,57.47a15.89,15.89,0,0,1-.11-1.64,15,15,0,0,1,.06-1.62,13.47,13.47,0,0,1-3.5,2.71A8.49,8.49,0,0,1,227.66,58a6.4,6.4,0,0,1-5.29-2.2,6.69,6.69,0,0,1-1-5.8,9,9,0,0,1,4-6.12,15.39,15.39,0,0,1,8.39-2h3.87L238,39.51a4.09,4.09,0,0,0-.41-3.32,3.43,3.43,0,0,0-2.91-1.12,5.09,5.09,0,0,0-3.09,1A4,4,0,0,0,230,38.58h-5.62l0-.15a8.59,8.59,0,0,1,3.8-5.67A13.19,13.19,0,0,1,236,30.43a8.59,8.59,0,0,1,6.43,2.4q2.35,2.4,1.5,6.72l-2.36,11.8a22.2,22.2,0,0,0-.45,3.22,14.8,14.8,0,0,0,.11,2.89h-5.94Zm-5.37-4.27a7.13,7.13,0,0,0,3.31-.88,8.05,8.05,0,0,0,2.67-2.13l0.93-4.61h-4a5.69,5.69,0,0,0-3.7,1.3,5.18,5.18,0,0,0-1.94,3A2.4,2.4,0,0,0,229.91,53.2Z" transform="translate(-26.64)"/><path class="cls-1" d="M282.57,58a8.88,8.88,0,0,1-7.74-3.73q-2.64-3.73-1.7-9.45l0.15-1a17.24,17.24,0,0,1,4.63-9.72,11.39,11.39,0,0,1,8.38-3.68q4.88,0,7.1,3.28t1.36,8.7l-0.56,3.51H278.84a8.45,8.45,0,0,0,.86,5.32,4.32,4.32,0,0,0,4,2,11.72,11.72,0,0,0,3.83-.6,15.19,15.19,0,0,0,3.39-1.67l1.23,3.91a13.73,13.73,0,0,1-4,2.24A15.81,15.81,0,0,1,282.57,58Zm2.94-22.77A4.54,4.54,0,0,0,282.09,37a10.9,10.9,0,0,0-2.29,4.45l0,0.12h9.23l0.1-.61a6.54,6.54,0,0,0-.47-4.17A3.32,3.32,0,0,0,285.51,35.22Z" transform="translate(-26.64)"/><path class="cls-1" d="M316.39,58a2.92,2.92,0,0,1-5-2.1,2.79,2.79,0,0,1,.91-2.13,2.86,2.86,0,0,1,2-.79A2.93,2.93,0,0,1,316.39,58Zm-3.76-3.79a2.43,2.43,0,0,0,1.72,4.13,2.3,2.3,0,0,0,1.7-.71,2.37,2.37,0,0,0,.71-1.72,2.34,2.34,0,0,0-.7-1.69A2.37,2.37,0,0,0,312.62,54.18Zm0.44,3.32V54.25h1.57a1.56,1.56,0,0,1,.64.17,0.82,0.82,0,0,1,.43.77,0.71,0.71,0,0,1-.23.59,1.06,1.06,0,0,1-.56.22,1.11,1.11,0,0,1,.46.19,0.88,0.88,0,0,1,.29.73v0.29a0.79,0.79,0,0,0,0,.1,0.56,0.56,0,0,0,0,.09l0,0.09h-0.81a2.33,2.33,0,0,1-.05-0.45,1.53,1.53,0,0,0-.05-0.4,0.39,0.39,0,0,0-.24-0.24,1,1,0,0,0-.29-0.05h-0.37V57.5h-0.85Zm1.55-2.6a1.42,1.42,0,0,0-.49-0.07h-0.21v0.94h0.33a0.79,0.79,0,0,0,.46-0.12,0.44,0.44,0,0,0,.17-0.38A0.37,0.37,0,0,0,314.61,54.89Z" transform="translate(-26.64)"/><path class="cls-1" d="M313.05,36.37l-2.7-.1a4.84,4.84,0,0,0-2.62.74,6.57,6.57,0,0,0-2,2.06L302,57.47h-5.86l5.3-26.55h5.37l-0.34,3.51a10.27,10.27,0,0,1,2.93-3,6.37,6.37,0,0,1,3.5-1,7.4,7.4,0,0,1,1.06.09,4.4,4.4,0,0,1,.9.21Z" transform="translate(-26.64)"/><path class="cls-1" d="M247.24,44.07q1.35-6.77,4.32-10.21a9.63,9.63,0,0,1,7.63-3.43,7.37,7.37,0,0,1,3.45.81,7.11,7.11,0,0,1,2.59,2.28l2.87-14.33h0a4.81,4.81,0,0,1,4.71,5.75L266.3,57.47h-5.05l0.15-2.62a10.2,10.2,0,0,1-3.18,2.34,8.59,8.59,0,0,1-3.64.8,6.92,6.92,0,0,1-6.42-3.86q-2.15-3.87-1-9.53ZM253,44.59a11.3,11.3,0,0,0,.12,6.23,3.6,3.6,0,0,0,3.73,2.31,4.84,4.84,0,0,0,2.76-.87A8.85,8.85,0,0,0,262,49.81l2.33-11.75a4.32,4.32,0,0,0-1.65-2,4.93,4.93,0,0,0-2.74-.72,5.1,5.1,0,0,0-4.28,2.37,16.46,16.46,0,0,0-2.51,6.39Z" transform="translate(-26.64)"/><path class="cls-1" d="M192.34,53.09a2.1,2.1,0,0,1-1.72-.69,2.77,2.77,0,0,1-.23-2.31l2.88-14.45,0.86-4.35,2.4-12.1h-5.86l-6.15,30.9q-0.79,4.06.66,6t4.7,1.9a10.64,10.64,0,0,0,2.2-.23c0.27-.06.52-0.13,0.77-0.21l0.43-4.5a5.52,5.52,0,0,1-.93.08" transform="translate(-26.64)"/></svg>